<svg width="960" height="620" viewBox="0 0 960 620" role="img" aria-labelledby="title desc" xmlns="http://www.w3.org/2000/svg">
  <title id="title">ICM dashboard screenshot</title>
  <desc id="desc">A local read-only dashboard showing stage status, review findings, human acceptance, doctor findings, and CLI source commands.</desc>
  <rect width="960" height="620" rx="22" fill="#f4f7f8"/>
  <rect x="34" y="34" width="892" height="552" rx="14" fill="#ffffff" stroke="#d6e0e3" stroke-width="2"/>
  <text x="70" y="86" fill="#00756b" font-family="Inter, Arial, sans-serif" font-size="14" font-weight="800">LOCAL WORKSPACE</text>
  <text x="70" y="124" fill="#172024" font-family="Inter, Arial, sans-serif" font-size="34" font-weight="800">ICM Dashboard</text>
  <rect x="746" y="70" width="92" height="36" rx="8" fill="#e5f5ef" stroke="#b9d9d0"/>
  <text x="766" y="93" fill="#00756b" font-family="Inter, Arial, sans-serif" font-size="14" font-weight="800">Read-only</text>
  <rect x="848" y="70" width="42" height="36" rx="8" fill="#ffffff" stroke="#d6e0e3"/>
  <text x="862" y="93" fill="#2459a6" font-family="Inter, Arial, sans-serif" font-size="14" font-weight="800">R</text>

  <g>
    <rect x="70" y="158" width="178" height="82" rx="8" fill="#ffffff" stroke="#d6e0e3"/>
    <text x="88" y="184" fill="#5f6c72" font-family="Inter, Arial, sans-serif" font-size="12" font-weight="800">STAGES</text>
    <text x="88" y="220" fill="#172024" font-family="Inter, Arial, sans-serif" font-size="30" font-weight="850">3</text>
    <text x="128" y="220" fill="#5f6c72" font-family="Inter, Arial, sans-serif" font-size="13">accepted</text>
  </g>
  <g>
    <rect x="266" y="158" width="178" height="82" rx="8" fill="#ffffff" stroke="#d6e0e3"/>
    <text x="284" y="184" fill="#5f6c72" font-family="Inter, Arial, sans-serif" font-size="12" font-weight="800">REVIEW</text>
    <text x="284" y="220" fill="#172024" font-family="Inter, Arial, sans-serif" font-size="30" font-weight="850">0</text>
    <text x="324" y="220" fill="#5f6c72" font-family="Inter, Arial, sans-serif" font-size="13">failures</text>
  </g>
  <g>
    <rect x="462" y="158" width="178" height="82" rx="8" fill="#ffffff" stroke="#d6e0e3"/>
    <text x="480" y="184" fill="#5f6c72" font-family="Inter, Arial, sans-serif" font-size="12" font-weight="800">DOCTOR</text>
    <text x="480" y="220" fill="#172024" font-family="Inter, Arial, sans-serif" font-size="30" font-weight="850">0</text>
    <text x="520" y="220" fill="#5f6c72" font-family="Inter, Arial, sans-serif" font-size="13">warnings</text>
  </g>
  <g>
    <rect x="658" y="158" width="232" height="82" rx="8" fill="#ffffff" stroke="#d6e0e3"/>
    <text x="676" y="184" fill="#5f6c72" font-family="Inter, Arial, sans-serif" font-size="12" font-weight="800">NEXT</text>
    <text x="676" y="218" fill="#172024" font-family="Inter, Arial, sans-serif" font-size="20" font-weight="850">accept handoff</text>
  </g>

  <rect x="70" y="272" width="520" height="248" rx="8" fill="#ffffff" stroke="#d6e0e3"/>
  <text x="94" y="306" fill="#172024" font-family="Inter, Arial, sans-serif" font-size="18" font-weight="800">Stages</text>
  <g font-family="Inter, Arial, sans-serif" font-size="14">
    <rect x="94" y="330" width="472" height="44" rx="8" fill="#fbfdfd" stroke="#d6e0e3"/>
    <text x="112" y="358" fill="#172024" font-family="ui-monospace, Menlo, Consolas, monospace" font-weight="800">00_intake</text>
    <rect x="232" y="340" width="92" height="24" rx="12" fill="#e5f5ef"/>
    <text x="248" y="357" fill="#00756b" font-size="12" font-weight="800">accepted</text>
    <text x="432" y="358" fill="#2459a6" font-size="12" font-weight="800">CONTEXT.md</text>

    <rect x="94" y="386" width="472" height="44" rx="8" fill="#fbfdfd" stroke="#d6e0e3"/>
    <text x="112" y="414" fill="#172024" font-family="ui-monospace, Menlo, Consolas, monospace" font-weight="800">01_discovery</text>
    <rect x="232" y="396" width="124" height="24" rx="12" fill="#eaf2ff"/>
    <text x="248" y="413" fill="#2459a6" font-size="12" font-weight="800">machine pass</text>
    <text x="422" y="414" fill="#2459a6" font-size="12" font-weight="800">output/report</text>

    <rect x="94" y="442" width="472" height="44" rx="8" fill="#fbfdfd" stroke="#d6e0e3"/>
    <text x="112" y="470" fill="#172024" font-family="ui-monospace, Menlo, Consolas, monospace" font-weight="800">05_validation</text>
    <rect x="232" y="452" width="124" height="24" rx="12" fill="#eaf2ff"/>
    <text x="248" y="469" fill="#2459a6" font-size="12" font-weight="800">machine pass</text>
    <text x="420" y="470" fill="#2459a6" font-size="12" font-weight="800">decision-log</text>
  </g>

  <rect x="614" y="272" width="276" height="248" rx="8" fill="#ffffff" stroke="#d6e0e3"/>
  <text x="638" y="306" fill="#172024" font-family="Inter, Arial, sans-serif" font-size="18" font-weight="800">CLI Source</text>
  <rect x="638" y="330" width="228" height="38" rx="8" fill="#fbfdfd" stroke="#d6e0e3"/>
  <text x="652" y="354" fill="#172024" font-family="ui-monospace, Menlo, Consolas, monospace" font-size="12">icm status --json</text>
  <rect x="638" y="382" width="228" height="38" rx="8" fill="#fbfdfd" stroke="#d6e0e3"/>
  <text x="652" y="406" fill="#172024" font-family="ui-monospace, Menlo, Consolas, monospace" font-size="12">icm doctor --json</text>
  <rect x="638" y="434" width="228" height="38" rx="8" fill="#fbfdfd" stroke="#d6e0e3"/>
  <text x="652" y="458" fill="#172024" font-family="ui-monospace, Menlo, Consolas, monospace" font-size="12">icm review ... --json</text>
  <rect x="638" y="486" width="228" height="38" rx="8" fill="#fbfdfd" stroke="#d6e0e3"/>
  <text x="652" y="510" fill="#172024" font-family="ui-monospace, Menlo, Consolas, monospace" font-size="12">icm accept ... --json</text>
</svg>
